<svg width="25" height="24" viewBox="0 0 25 24" fill="none" xmlns="http://www.w3.org/2000/svg">
<g clip-path="url(#clip0)">
<path d="M12.5001 0.0509033C5.87268 0.0509033 0.5 5.42359 0.5 12.051C0.5 17.995 4.82626 22.9176 10.4987 23.8708V14.5545H7.60393V11.202H10.4987V8.72991C10.4987 5.86162 12.2506 4.29858 14.8096 4.29858C16.0353 4.29858 17.0886 4.38991 17.3944 4.43013V7.42825L15.6194 7.42911C14.228 7.42911 13.9598 8.09017 13.9598 9.06059V11.2002H17.2798L16.8468 14.5528H13.9598V23.951C19.897 23.2284 24.5 18.1803 24.5 12.0475C24.5 5.42359 19.1273 0.0509033 12.5001 0.0509033Z" fill="#323232"/>
</g>
<defs>
<clipPath id="clip0">
<rect width="24" height="24" fill="white" transform="translate(0.5)"/>
</clipPath>
</defs>
</svg>
