<svg width="45" height="44" viewBox="0 0 45 44" fill="none" xmlns="http://www.w3.org/2000/svg">
<path d="M22.3864 0.394745C10.4171 0.394745 0.713745 10.0979 0.713745 22.0674C0.713745 34.0368 10.4171 43.74 22.3864 43.74C34.3557 43.74 44.059 34.0368 44.059 22.0674C44.059 10.0979 34.3557 0.394745 22.3864 0.394745ZM29.877 23.2162L19.0407 29.9889C18.8214 30.1258 18.5721 30.1946 18.3228 30.1946C18.0969 30.1946 17.8707 30.1384 17.666 30.0246C17.2354 29.7859 16.9682 29.3328 16.9682 28.8401V15.2947C16.9682 14.802 17.2354 14.3489 17.666 14.1101C18.0965 13.87 18.623 13.8846 19.0407 14.1459L29.877 20.9186C30.2728 21.1666 30.5136 21.6005 30.5136 22.0674C30.5136 22.5343 30.2728 22.9682 29.877 23.2162Z" fill="white"/>
</svg>
