<svg width="25" height="24" viewBox="0 0 25 24" fill="none" xmlns="http://www.w3.org/2000/svg">
<g clip-path="url(#clip0)">
<path d="M11.0049 14.2482L14.9084 12L11.0049 9.75183V14.2482Z" fill="#323232"/>
<path d="M12.5 0C5.8736 0 0.5 5.3736 0.5 12C0.5 18.6264 5.8736 24 12.5 24C19.1264 24 24.5 18.6264 24.5 12C24.5 5.3736 19.1264 0 12.5 0ZM19.9982 12.0123C19.9982 12.0123 19.9982 14.4459 19.6895 15.6194C19.5164 16.2618 19.0099 16.7682 18.3676 16.9411C17.1941 17.25 12.5 17.25 12.5 17.25C12.5 17.25 7.81818 17.25 6.63239 16.9288C5.99005 16.756 5.48358 16.2493 5.31055 15.607C5.00165 14.4459 5.00165 12 5.00165 12C5.00165 12 5.00165 9.56653 5.31055 8.39301C5.4834 7.75067 6.00232 7.23175 6.63239 7.0589C7.80591 6.75 12.5 6.75 12.5 6.75C12.5 6.75 17.1941 6.75 18.3676 7.07117C19.0099 7.24402 19.5164 7.75067 19.6895 8.39301C20.0106 9.56653 19.9982 12.0123 19.9982 12.0123Z" fill="#323232"/>
</g>
<defs>
<clipPath id="clip0">
<rect width="24" height="24" fill="white" transform="translate(0.5)"/>
</clipPath>
</defs>
</svg>
